<svg xmlns="http://www.w3.org/2000/svg" width="106" height="33" viewBox="0 0 106 33">
    <path fill="#FFF" fill-rule="evenodd" d="M105.982 29.134c0 1.774-1.36 3.211-3.038 3.211H3.421C1.743 32.347.38 30.91.378 29.135V3.527C.379 1.753 1.742.314 3.422.314h99.518c1.68 0 3.042 1.439 3.042 3.214v25.606zM18.461 8.86c.725-.897 1.22-2.116 1.083-3.353-1.05.046-2.36.718-3.116 1.594-.669.772-1.266 2.038-1.111 3.229 1.178.087 2.388-.588 3.144-1.47zm2.653 7.771c-.024-2.643 2.188-3.928 2.29-3.988-1.253-1.806-3.195-2.053-3.878-2.073-1.63-.17-3.213.965-4.044.965-.847 0-2.126-.949-3.505-.92-1.775.026-3.435 1.042-4.345 2.62-1.88 3.216-.478 7.943 1.322 10.543.9 1.274 1.953 2.695 3.33 2.645 1.348-.054 1.851-.848 3.477-.848 1.611 0 2.084.848 3.488.816 1.447-.022 2.357-1.279 3.226-2.564 1.04-1.458 1.458-2.897 1.475-2.97-.033-.012-2.808-1.06-2.836-4.226zm74.623 3.902l-3.682-.001c.054-.528.229-.982.523-1.36.359-.475.83-.712 1.408-.712.63 0 1.102.242 1.407.73.24.377.356.824.344 1.343zm1.686.454c0-.982-.235-1.808-.702-2.475-.59-.841-1.458-1.262-2.604-1.262-1.168 0-2.096.42-2.782 1.262-.656.788-.984 1.776-.984 2.962 0 1.207.353 2.172 1.056 2.89.705.716 1.673 1.075 2.907 1.075 1.026 0 1.914-.162 2.667-.486l-.277-1.213c-.644.248-1.36.371-2.145.371-.71 0-1.288-.183-1.735-.549-.493-.41-.75-1.005-.77-1.782h5.304c.047-.262.069-.528.065-.793zm-7.907-2.025l-.001-1.667a2.872 2.872 0 0 0-.442-.032c-.46 0-.91.148-1.278.421-.403.312-.696.73-.884 1.247h-.049l-.065-1.505h-1.54c.037.825.054 1.65.052 2.477v5.39h1.768v-4.128c0-.626.148-1.144.441-1.554.338-.466.82-.697 1.441-.697.187 0 .373.015.557.048zm-7.58 2.372c0 .723-.164 1.345-.49 1.875-.382.633-.912.952-1.588.952-.69 0-1.224-.312-1.606-.937-.317-.516-.474-1.135-.474-1.857 0-.743.157-1.372.474-1.89.37-.624.913-.936 1.621-.936.687 0 1.218.312 1.589.937.316.517.473 1.136.473 1.856zm1.832-.04c0-1.177-.338-2.137-1.016-2.88-.71-.765-1.648-1.149-2.815-1.149-1.212 0-2.175.389-2.89 1.166-.715.776-1.073 1.775-1.073 2.994 0 1.165.347 2.131 1.04 2.898.693.765 1.623 1.148 2.792 1.148 1.211 0 2.183-.399 2.914-1.198.698-.777 1.048-1.77 1.048-2.979zm-8.775-2.557v-1.315h-1.948v-1.96l-1.737.519v1.44h-1.16v1.312h1.16V22.7c0 .994.198 1.7.59 2.122.394.421.94.632 1.638.632.568 0 1.026-.065 1.374-.194l-.049-1.327a3.14 3.14 0 0 1-.785.08c-.688 0-1.031-.484-1.031-1.455v-3.82h1.948zm-5.86 3.495c0-.753-.223-1.386-.674-1.892-.447-.507-1.145-.948-2.095-1.327-.774-.302-1.31-.583-1.604-.841a1.33 1.33 0 0 1-.508-1.068c0-.39.15-.72.444-.99.35-.301.839-.453 1.462-.453.79 0 1.495.168 2.12.502l.444-1.425c-.664-.345-1.5-.518-2.505-.518-1.124 0-2.028.286-2.71.858-.681.573-1.023 1.306-1.023 2.202 0 1.37.967 2.413 2.899 3.125.71.259 1.217.54 1.522.842.305.302.46.674.46 1.117 0 .495-.188.892-.558 1.189-.37.296-.888.445-1.555.445a4.96 4.96 0 0 1-2.554-.68l-.409 1.457c.719.453 1.67.68 2.858.68 1.285 0 2.288-.32 3.006-.956.652-.583.98-1.338.98-2.267zM57.1 21.326c0 .831-.186 1.5-.558 2.008-.37.506-.888.761-1.554.761-.569 0-1.03-.198-1.385-.591-.353-.395-.531-.878-.531-1.45v-1.313c0-.139.029-.315.082-.532.11-.464.34-.838.695-1.125a1.859 1.859 0 0 1 1.189-.43c.643 0 1.155.26 1.537.777.35.498.525 1.13.525 1.895zm1.801-.064c0-1.198-.315-2.164-.94-2.9-.628-.733-1.412-1.1-2.35-1.1-1.201 0-2.096.47-2.685 1.41h-.033l-.098-1.247H51.24c.043.884.065 1.746.065 2.586v8.472h1.768v-4.128c.46.744 1.218 1.116 2.272 1.116.977 0 1.794-.345 2.454-1.037.735-.776 1.102-1.834 1.102-3.172zm-10.952.064c0 .831-.186 1.5-.557 2.008-.371.506-.89.761-1.555.761-.567 0-1.028-.198-1.383-.591-.355-.395-.532-.878-.532-1.45v-1.313c.006-.18.033-.358.082-.532.108-.464.34-.838.695-1.125a1.85 1.85 0 0 1 1.187-.43c.643 0 1.157.26 1.539.777.35.498.524 1.13.524 1.895zm1.8-.064c0-1.198-.313-2.164-.94-2.9-.626-.733-1.41-1.1-2.349-1.1-1.2 0-2.095.47-2.684 1.41h-.034l-.098-1.247h-1.555c.043.884.066 1.746.066 2.586v8.472h1.767v-4.128c.46.744 1.218 1.116 2.272 1.116.976 0 1.795-.345 2.453-1.037.735-.776 1.103-1.834 1.103-3.172zm-12.344-.519h-2.963l.917-2.85c.24-.905.414-1.59.524-2.055h.033c.272 1.08.458 1.765.556 2.056l.933 2.85zm3.226 4.55L37.06 14.38h-2.193l-3.553 10.912h1.833l.983-3.205h3.585l1.032 3.205h1.883zM95.807 9.084h-1.81c.057-.588.451-1.018.95-1.018.556 0 .86.421.86 1.018zm.797.613c.026-.128.036-.26.03-.39 0-1.106-.627-1.838-1.626-1.838-1.108 0-1.85.891-1.85 2.077 0 1.185.725 1.949 1.948 1.949.506 0 .942-.08 1.312-.239l-.136-.597a2.968 2.968 0 0 1-1.054.183c-.725 0-1.215-.413-1.232-1.145h2.608zm-4.713 1.727v-2.3c0-1.011-.506-1.647-1.333-1.647-.506 0-.902.207-1.176.628h-.017V5.782h-.869v5.642h.869V9.092c0-.612.42-.915.87-.915.523 0 .788.35.788 1.043v2.204h.868zm-4.6-3.223v-.645h-.956v-.963l-.854.255v.709h-.57V8.2h.57v1.95c0 .979.41 1.353 1.095 1.353.28 0 .506-.032.674-.096l-.024-.653c-.103.024-.232.04-.385.04-.339 0-.506-.238-.506-.716V8.201h.956zm-5.847 3.223V9.107c0-1.01-.54-1.63-1.36-1.63-.531 0-1.006.263-1.24.676h-.023l-.04-.597h-.765c.024.398.032.764.032 1.106v2.762h.87v-2.3c0-.51.353-.947.868-.947.523 0 .788.342.788 1.026v2.22h.87zm-6.588-3.319c.612 0 1.015.59 1.013 1.376 0 .773-.41 1.393-1.022 1.393-.61 0-1.02-.58-1.02-1.376 0-.812.402-1.393 1.029-1.393zm-.033 3.406c1.169 0 1.949-.843 1.948-2.052 0-1.178-.756-1.982-1.883-1.982-1.19 0-1.947.851-1.947 2.045 0 1.146.74 1.99 1.882 1.99zM68.44 9.148v.645c0 .556-.387 1.026-.933 1.026-.612 0-1.02-.534-1.02-1.313 0-.795.393-1.36 1.037-1.36.553 0 .916.461.916 1.002zm.128 2.276h.774a14.52 14.52 0 0 1-.033-1.043V5.782h-.87v2.22h-.017c-.209-.35-.58-.525-1.103-.525-.988 0-1.712.851-1.712 2.06 0 1.154.698 1.974 1.641 1.974.586 0 1.006-.239 1.256-.708h.023l.041.62zm-5.066-1.926v.597c0 .453-.411.787-.853.787-.347 0-.596-.199-.596-.605 0-.548.484-.78 1.449-.78zm.12 1.926h.783a5.782 5.782 0 0 1-.057-.923V9.077c0-1.067-.515-1.6-1.537-1.6-.53 0-.98.112-1.342.335l.176.565a1.845 1.845 0 0 1 1.022-.287c.539 0 .812.255.812.764v.071c-1.449 0-2.286.494-2.286 1.448 0 .653.498 1.138 1.199 1.138.49 0 .878-.174 1.143-.533h.023l.063.446zM58.28 8.105c.612 0 1.013.59 1.012 1.376 0 .773-.41 1.393-1.022 1.393-.609 0-1.02-.58-1.02-1.376 0-.812.402-1.393 1.03-1.393zm-.033 3.406c1.167 0 1.948-.843 1.947-2.052 0-1.178-.756-1.982-1.883-1.982-1.19 0-1.947.851-1.947 2.045 0 1.146.741 1.99 1.883 1.99zm-4.038-.087h.87V5.782h-.87v5.642zm-1.526 0V9.108c0-1.01-.538-1.63-1.36-1.63-.53 0-1.005.262-1.239.675h-.024l-.04-.597h-.765c.024.398.032.764.032 1.106v2.762h.87v-2.3c0-.51.353-.947.868-.947.523 0 .789.342.789 1.026v2.22h.869zM48.18 7.557h-.853l-.475 1.807c-.12.453-.21.876-.265 1.273h-.024a15.023 15.023 0 0 0-.314-1.273l-.532-1.806h-.708l-.555 1.845c-.153.501-.258.908-.322 1.233h-.016c-.073-.39-.161-.803-.266-1.24l-.443-1.84h-.893l1.151 3.868h.805l.54-1.68c.128-.405.249-.827.313-1.248h.016c.084.42.189.838.315 1.248l.506 1.68h.797l1.223-3.867zm-8.43.548c.611 0 1.013.59 1.013 1.376 0 .773-.41 1.393-1.021 1.393s-1.022-.58-1.022-1.376c0-.812.402-1.393 1.03-1.393zm-.033 3.406c1.167 0 1.948-.843 1.948-2.052 0-1.178-.758-1.982-1.884-1.982-1.191 0-1.947.851-1.947 2.045 0 1.146.74 1.99 1.883 1.99zm-5.8-4.814c1.288 0 1.972.693 1.972 1.941 0 1.4-.756 2.149-2.084 2.149a4.66 4.66 0 0 1-.587-.024v-4.01c.193-.04.426-.056.7-.056zm-.296 4.774c2.083 0 3.186-1.002 3.186-2.856 0-1.608-.933-2.595-2.96-2.595a9.728 9.728 0 0 0-1.497.112v5.275c.354.04.779.064 1.27.064z"/>
</svg>
