<svg xmlns="http://www.w3.org/2000/svg" width="171" height="54" viewBox="0 0 171 54">
    <g fill="#FFF" fill-rule="evenodd">
        <path d="M74.132 13.3c-.317 0-.586.142-.808.427-.221.284-.332.645-.332 1.08 0 .452.116.82.35 1.105.234.283.52.426.859.426.317 0 .586-.144.808-.43.222-.286.332-.645.332-1.078 0-.455-.117-.823-.348-1.107-.233-.282-.52-.424-.861-.424M80.439 13.322c-.094 0-.222.01-.385.029.02.436.033.89.033 1.365 0 .52.01 1.036.032 1.545.141.03.283.044.423.044.468 0 .814-.146 1.039-.435.225-.291.337-.646.337-1.064 0-.417-.121-.769-.365-1.055-.243-.286-.615-.429-1.114-.429M91.11 13.283c-.154 0-.316.016-.488.05.024.41.036.875.036 1.395.054.005.117.007.189.007.793 0 1.19-.25 1.19-.754 0-.465-.309-.698-.926-.698M86.96 13.273c0 .085-.192.692-.577 1.82h1.187c-.372-1.122-.558-1.728-.558-1.82h-.052zM56.17 13.273c0 .085-.191.692-.576 1.82h1.186c-.371-1.122-.557-1.728-.557-1.82h-.052zM69.512 13.287a2.87 2.87 0 0 0-.541.046c.025.336.036.776.036 1.317.119.004.22.006.303.006.69 0 1.036-.239 1.036-.721 0-.432-.278-.648-.834-.648M64.843 13.322c-.093 0-.22.01-.384.029.02.436.032.89.032 1.365 0 .52.012 1.036.033 1.545.141.03.283.044.423.044.468 0 .813-.146 1.039-.435.225-.291.337-.646.337-1.064 0-.417-.122-.769-.365-1.055-.243-.286-.615-.429-1.115-.429M101.07 13.3c-.319 0-.588.142-.81.427-.22.284-.332.645-.332 1.08 0 .452.118.82.35 1.105.234.283.52.426.86.426.317 0 .586-.144.808-.43.221-.286.331-.645.331-1.078 0-.455-.115-.823-.347-1.107-.232-.282-.52-.424-.86-.424M95.02 13.283c-.154 0-.318.016-.489.05.024.41.036.875.036 1.395.054.005.118.007.19.007.792 0 1.189-.25 1.189-.754 0-.465-.309-.698-.926-.698M86.522 28.59c-.913 0-1.703.34-2.37 1.022-.668.683-1 1.586-1 2.71 0 1.125.332 2.028 1 2.71.667.682 1.457 1.023 2.37 1.023.912 0 1.702-.341 2.37-1.023.667-.682 1-1.585 1-2.71 0-1.124-.333-2.027-1-2.71-.668-.682-1.458-1.022-2.37-1.022M75.253 28.59c-.913 0-1.703.34-2.37 1.022-.667.683-1 1.586-1 2.71 0 1.125.333 2.028 1 2.71.667.682 1.457 1.023 2.37 1.023s1.703-.341 2.37-1.023c.667-.682 1-1.585 1-2.71 0-1.124-.333-2.027-1-2.71-.667-.682-1.457-1.022-2.37-1.022M128.73 24.245h-3.243v5.272h3.244c.814 0 1.467-.274 1.958-.822.492-.548.738-1.153.738-1.814 0-.66-.246-1.265-.738-1.812-.491-.55-1.144-.824-1.958-.824M140.483 32.976c-.478.408-.716.885-.716 1.435 0 .505.217.906.653 1.201.434.295.933.443 1.495.443.8 0 1.527-.3 2.18-.896.654-.597.979-1.304.979-2.12-.548-.45-1.368-.674-2.464-.674-.941 0-1.65.204-2.127.61M112.765 28.59c-.716 0-1.337.224-1.864.674-.527.45-.888 1.055-1.085 1.814h5.983c-.043-.59-.314-1.152-.812-1.687-.499-.534-1.24-.801-2.222-.801M97.706 28.59c-.9 0-1.671.34-2.316 1.022-.647.683-.97 1.586-.97 2.71 0 1.125.323 2.028.97 2.71.645.682 1.417 1.023 2.316 1.023.913 0 1.689-.338 2.328-1.012.639-.675.958-1.582.958-2.72 0-1.14-.319-2.046-.958-2.72-.639-.676-1.415-1.013-2.328-1.013"/>
        <path d="M151.141 42.043h-2l2.4-5.208-4.254-9.68h2.106l3.075 7.424h.042l2.99-7.424h2.107l-6.466 14.888zm-4.213-4.554h-1.854v-1.434h-.083c-.773 1.18-1.904 1.772-3.392 1.772-1.096 0-2.012-.318-2.748-.95-.738-.633-1.107-1.469-1.107-2.51 0-1.123.436-2.006 1.307-2.646.87-.64 1.944-.96 3.222-.96 1.138 0 2.072.211 2.8.634v-.296c0-.76-.259-1.368-.778-1.824-.52-.457-1.158-.685-1.916-.685a2.97 2.97 0 0 0-1.527.4c-.457.268-.77.633-.938 1.097l-1.77-.76c.239-.618.71-1.19 1.412-1.718.701-.528 1.628-.79 2.78-.79 1.32 0 2.415.386 3.286 1.16.87.773 1.306 1.862 1.306 3.268v6.242zm-12.257 0h1.937v-15.1h-1.937v15.1zm-2.665-7.391c-.935.85-2.04 1.275-3.317 1.275h-3.202v6.116h-1.938v-15.1h5.14c1.277 0 2.382.427 3.317 1.276.933.851 1.4 1.923 1.4 3.217 0 1.293-.467 2.366-1.4 3.216zm-14.164 2.583h-8.152c.055 1.04.403 1.863 1.043 2.467.639.604 1.386.907 2.243.907 1.39 0 2.33-.59 2.822-1.772l1.727.718c-.337.8-.893 1.472-1.663 2.013-.773.541-1.721.813-2.844.813-1.558 0-2.826-.52-3.802-1.561-.976-1.04-1.464-2.355-1.464-3.943 0-1.505.474-2.798 1.422-3.881.947-1.082 2.159-1.624 3.633-1.624 1.53 0 2.755.5 3.675 1.498.92.998 1.38 2.334 1.38 4.007l-.02.358zm-10.247-15.744h-.805c0-.089-.298-.559-.895-1.412-.627-.9-.983-1.514-1.07-1.844h-.052c.055.477.082.907.082 1.292 0 .538.015 1.193.046 1.964h-.803c.033-.673.05-1.414.05-2.221 0-.794-.017-1.47-.05-2.027h.969c0 .115.268.576.805 1.38.571.856.9 1.435.984 1.74h.05c-.053-.485-.079-.921-.079-1.305 0-.59-.015-1.195-.046-1.815h.814a37.32 37.32 0 0 0-.045 2.027c0 .818.015 1.558.045 2.221zm-2.917 20.552h1.937v-15.1h-1.937v15.1zm-2.113-21.093c-.408.44-.913.66-1.516.66a1.914 1.914 0 0 1-1.44-.606c-.387-.404-.58-.916-.58-1.538 0-.67.204-1.222.612-1.662a1.99 1.99 0 0 1 1.516-.66c.574 0 1.054.202 1.44.605.388.402.58.916.58 1.54 0 .668-.203 1.222-.612 1.661zm.281 20.566c0 1.77-.513 3.117-1.538 4.038-1.025.92-2.275 1.381-3.749 1.381-1.222 0-2.218-.305-2.991-.917-.773-.612-1.328-1.312-1.664-2.098l1.77-.738c.196.561.557 1.033 1.085 1.412.525.38 1.125.57 1.8.57 1.067 0 1.906-.32 2.517-.96.611-.64.916-1.507.916-2.604v-.991h-.085c-.337.506-.814.928-1.431 1.265-.618.337-1.314.507-2.086.507-1.334 0-2.485-.527-3.454-1.583-.969-1.054-1.454-2.361-1.454-3.921 0-1.561.485-2.87 1.454-3.924.97-1.054 2.12-1.58 3.454-1.58.772 0 1.468.168 2.086.505.617.338 1.094.759 1.431 1.266h.085v-1.435h1.854v9.807zM90.88 15.326a2.41 2.41 0 0 1-.218-.007c0 .41.012.949.036 1.618h-.916c.028-.628.042-1.368.042-2.221 0-.784-.014-1.46-.042-2.027h.567c.08 0 .235-.003.463-.01.228-.006.426-.01.593-.01.413 0 .762.094 1.046.28.286.188.427.472.427.853 0 .52-.193.904-.579 1.152-.385.247-.859.372-1.42.372zm-.545 20.93c-.998 1.047-2.267 1.57-3.812 1.57s-2.816-.523-3.812-1.57c-.997-1.048-1.496-2.358-1.496-3.933 0-1.575.5-2.886 1.496-3.934.996-1.047 2.267-1.57 3.812-1.57s2.814.523 3.812 1.57c.997 1.048 1.495 2.359 1.495 3.934 0 1.575-.498 2.885-1.495 3.932zm-11.268 0c-.998 1.047-2.268 1.57-3.813 1.57-1.544 0-2.815-.523-3.812-1.57-.997-1.048-1.496-2.358-1.496-3.933 0-1.575.5-2.886 1.496-3.934.997-1.047 2.268-1.57 3.812-1.57 1.545 0 2.815.523 3.813 1.57.997 1.048 1.495 2.359 1.495 3.934 0 1.575-.498 2.885-1.495 3.932zM69.01 15.243c0 .56.01 1.124.03 1.693h-.907a51.82 51.82 0 0 0 .043-2.221c0-.792-.014-1.468-.043-2.027h.565c.065 0 .2-.003.408-.01.207-.006.4-.01.576-.01.997 0 1.496.341 1.496 1.026 0 .54-.285.919-.854 1.131v.05c.219.06.411.232.577.513.165.283.388.799.668 1.548h-.965c-.253-.77-.446-1.245-.58-1.426-.136-.18-.352-.27-.652-.27-.126 0-.247.001-.362.003zM67.27 35.59c-1.418 1.49-3.265 2.237-5.539 2.237-2.177 0-4.027-.756-5.55-2.268-1.524-1.51-2.285-3.385-2.285-5.62 0-2.235.76-4.108 2.285-5.62 1.523-1.51 3.373-2.266 5.55-2.266 1.08 0 2.113.21 3.097.632.982.421 1.768.984 2.358 1.687L65.86 25.7c-.996-1.194-2.373-1.793-4.128-1.793-1.587 0-2.959.56-4.118 1.677-1.158 1.118-1.738 2.57-1.738 4.355 0 1.786.58 3.237 1.738 4.355 1.159 1.118 2.53 1.676 4.118 1.676 1.685 0 3.09-.562 4.212-1.687.73-.73 1.151-1.75 1.263-3.058h-5.475v-1.813h7.31c.07.394.104.773.104 1.14 0 2.108-.625 3.788-1.874 5.038zm-19.499-4.562c-.286.212-.602.386-.916.56-1.857 1.028-3.723 2.047-5.576 3.082-.25.141-.4.135-.606-.08a405.996 405.996 0 0 0-3.991-4.066c-.196-.196-.2-.304-.001-.5a671.755 671.755 0 0 0 4.657-4.641c.182-.185.312-.205.54-.075 1.835 1.04 3.68 2.068 5.521 3.1.569.32 1.012.734 1.037 1.409-.021.544-.277.925-.665 1.21zm-8.01 4.478c-6.147 3.368-12.29 6.747-18.432 10.122-.101.056-.196.148-.248.183 4.788-4.847 9.58-9.689 14.357-14.547.297-.302.435-.261.7.017a277.981 277.981 0 0 0 3.683 3.755c.217.218.235.307-.06.47zM18.512 45.982c-.55-.424-.763-.994-.763-1.67.001-2.858-.004-5.714-.005-8.57v-6.06h.008c0-4.822 0-9.645-.003-14.468 0-.592.115-1.132.533-1.58.163-.172.28-.219.48-.015 3.241 3.311 6.49 6.614 9.739 9.919 2.104 2.14 4.206 4.28 6.317 6.412.205.206.223.315.006.531A6129.713 6129.713 0 0 0 19.35 45.933c-.315.314-.536.281-.838.049zm2.03-32.636c6.598 3.7 13.194 7.404 19.795 11.097.304.17.298.265.064.495a660.147 660.147 0 0 0-4.403 4.386c-.157.158-.255.248-.466.033-5.248-5.36-10.505-10.711-15.759-16.064-.044-.045-.08-.098-.17-.208.394-.004.672.111.94.261zm34.372 1.503c.506-1.307.76-2.027.76-2.16h1.233c0 .124.23.834.689 2.129.46 1.296.689 2.003.689 2.12h-1.043c0-.143-.1-.55-.297-1.22H55.44c-.204.66-.305 1.066-.305 1.22h-.983c0-.085.255-.782.763-2.089zm4.077-2.16h.968c0 .115.268.576.805 1.38.571.856.898 1.435.984 1.74h.049c-.053-.485-.079-.921-.079-1.305 0-.59-.015-1.195-.046-1.815h.816c-.03.54-.046 1.215-.046 2.027 0 .818.016 1.558.046 2.221h-.805c0-.089-.299-.559-.897-1.412-.625-.9-.981-1.514-1.069-1.844h-.052c.054.477.082.907.082 1.292 0 .538.014 1.193.045 1.964h-.801c.032-.673.048-1.414.048-2.221 0-.794-.016-1.47-.048-2.027zm4.636 0h.57c.094 0 .233-.003.417-.01.184-.006.305-.01.362-.01.784 0 1.353.196 1.706.588.353.392.53.862.53 1.41 0 .617-.199 1.157-.593 1.618-.396.461-.95.692-1.663.692-.321 0-.765-.013-1.33-.04.028-.656.043-1.397.043-2.221 0-.792-.015-1.468-.042-2.027zm9.076.561a1.99 1.99 0 0 1 1.516-.66c.574 0 1.054.202 1.441.605.387.402.58.916.58 1.54 0 .668-.204 1.222-.613 1.661-.409.44-.914.66-1.515.66a1.913 1.913 0 0 1-1.44-.606c-.388-.404-.581-.916-.581-1.538 0-.67.204-1.222.612-1.662zm4.457-.56h.923a40.045 40.045 0 0 0-.043 2.026c0 .82.014 1.56.043 2.221h-.923c.029-.673.043-1.414.043-2.221 0-.794-.014-1.47-.043-2.027zm2.062 0h.57c.094 0 .233-.004.418-.01.184-.007.305-.011.361-.011.785 0 1.353.196 1.707.588.353.392.53.862.53 1.41 0 .617-.2 1.157-.594 1.618-.395.461-.95.692-1.662.692-.322 0-.765-.013-1.33-.04.028-.656.042-1.397.042-2.221 0-.792-.014-1.468-.042-2.027zm6.48 2.16c.508-1.308.761-2.028.761-2.16h1.232c0 .123.23.833.69 2.128.46 1.296.69 2.003.69 2.12h-1.044c0-.143-.099-.55-.297-1.22H86.23c-.204.66-.306 1.066-.306 1.22h-.981c0-.085.253-.782.76-2.089zm7.987-2.16h.567c.081 0 .236-.004.463-.01.228-.007.426-.011.593-.011.413 0 .762.094 1.046.28.285.188.428.472.428.853 0 .52-.193.904-.58 1.152-.385.247-.858.372-1.419.372-.102 0-.174-.002-.217-.007 0 .41.01.949.035 1.618h-.916c.028-.628.043-1.368.043-2.221 0-.784-.015-1.46-.043-2.027zM162.533.877H8.183C4.049.878.697 4.05.697 7.964v38.261c0 3.914 3.352 7.087 7.486 7.087h154.35c4.133 0 7.484-3.173 7.484-7.087V7.964c0-3.913-3.351-7.086-7.484-7.086z"/>
    </g>
</svg>
