<svg xmlns="http://www.w3.org/2000/svg" xmlns:xlink="http://www.w3.org/1999/xlink" width="79" height="60" viewBox="0 0 79 60">
    <defs>
        <path id="a" d="M5.8 59.642A38.948 38.948 0 0 1 0 39.13C0 17.52 17.52 0 39.13 0c21.612 0 39.13 17.52 39.13 39.13a38.948 38.948 0 0 1-5.8 20.512C65.57 48.47 53.22 41.024 39.13 41.024c-14.089 0-26.44 7.446-33.33 18.618zm10.327-38.017v.844c.458.038.902.067 1.33.088l.58.025c.24.008.467.012.682.012.412 0 .714-.096.908-.287.193-.192.29-.492.29-.9v-.313c0-.409-.097-.709-.29-.9-.194-.192-.496-.288-.908-.288h-1.135c-.253 0-.379-.125-.379-.375v-.125c0-.25.126-.376.379-.376h1.96v-.875h-2.213c-.441 0-.762.1-.961.297-.2.198-.3.516-.3.954v.187c0 .438.1.756.3.954.2.198.52.297.961.297h1.45v.562a.307.307 0 0 1-.084.229.313.313 0 0 1-.23.084c-.408 0-1.188-.031-2.34-.094zm9.077.844v-.844c-.273.017-.501.031-.684.044-.183.012-.333.02-.448.025l-.344.012a19.46 19.46 0 0 1-.618.013.296.296 0 0 1-.217-.084.307.307 0 0 1-.086-.229v-2c0-.25.127-.376.379-.376h2.018v-.875h-2.27c-.442 0-.762.1-.962.297-.2.198-.3.516-.3.954v2c0 .409.097.709.29.9.194.192.496.288.908.288.619 0 1.396-.041 2.334-.125zm1.818-4.314v4.377h1.135v-1.313h.883l.726 1.313h1.23l-.789-1.376c.252-.062.436-.19.552-.381.115-.192.173-.46.173-.807v-.562c0-.438-.1-.756-.3-.954-.199-.198-.52-.297-.961-.297h-2.649zm2.775 1.25v.563c0 .25-.126.375-.378.375h-1.262V19.03h1.262c.252 0 .378.125.378.376zm5.918-.062v2c0 .25-.126.376-.379.376h-1.072c-.252 0-.378-.125-.378-.375v-2c0-.251.126-.376.378-.376h1.072c.253 0 .379.125.379.375zm1.135 2v-2c0-.438-.1-.755-.3-.953-.2-.198-.52-.297-.961-.297h-1.577c-.442 0-.762.099-.962.297-.2.198-.3.515-.3.953v2c0 .438.1.756.3.954.2.198.52.297.962.297h1.577c.441 0 .762-.099.961-.297.2-.198.3-.516.3-.953zm3.08.313v-3.5h-1.136v4.376h3.437v-.876H39.93zm5.192 0v-3.5h-1.135v4.376h3.437v-.876h-2.302zm9.407.876V19.03h1.324v-.875H52.07v.875h1.325v3.502h1.135zm5.917-3.189v2c0 .25-.126.376-.378.376h-1.072c-.252 0-.378-.125-.378-.375v-2c0-.251.126-.376.378-.376h1.072c.252 0 .378.125.378.375zm1.136 2v-2c0-.438-.1-.755-.3-.953-.2-.198-.52-.297-.962-.297h-1.576c-.442 0-.762.099-.962.297-.2.198-.3.515-.3.953v2c0 .438.1.756.3.954.2.198.52.297.962.297h1.576c.442 0 .762-.099.962-.297.2-.198.3-.516.3-.953zM23.239 31.09v6.096h2.838V26.244h-2.995l-3.153 5.784-3.154-5.784H13.78v10.942h2.838V31.09l2.207 3.908h2.207l2.207-3.908zm8.343 6.096l.71-1.954h3.941l.71 1.954h3.074L35.84 26.244h-3.153l-4.178 10.942h3.074zm1.42-3.986l1.26-3.673 1.262 3.673h-2.523zm9.446-6.956v10.942h2.838v-3.283h2.207l1.813 3.283h3.075l-1.971-3.439c.63-.156 1.09-.474 1.38-.953.288-.48.433-1.152.433-2.017V29.37c0-1.094-.25-1.888-.749-2.383-.5-.495-1.3-.743-2.404-.743h-6.622zm6.937 3.126v1.407c0 .625-.315.938-.946.938h-3.153v-3.282h3.153c.63 0 .946.312.946.937zm5.726 5.55v2.11c1.145.093 2.254.166 3.326.218l1.45.063c.6.02 1.168.031 1.704.031 1.03 0 1.787-.24 2.27-.719.484-.48.725-1.23.725-2.25v-.782c0-1.021-.241-1.772-.725-2.251-.483-.48-1.24-.72-2.27-.72h-2.838c-.63 0-.946-.312-.946-.937v-.313c0-.625.315-.937.946-.937h4.903v-2.189h-5.534c-1.104 0-1.905.248-2.404.743-.5.495-.75 1.29-.75 2.383v.47c0 1.093.25 1.888.75 2.383.5.495 1.3.743 2.404.743h3.626v1.406c0 .24-.07.43-.212.57-.142.142-.334.212-.576.212-1.02 0-2.97-.078-5.85-.235z"/>
    </defs>
    <use fill="#FFF" fill-rule="evenodd" xlink:href="#a"/>
</svg>
