<?xml version="1.0" standalone="no"?>
<!DOCTYPE svg PUBLIC "-//W3C//DTD SVG 20010904//EN"
 "http://www.w3.org/TR/2001/REC-SVG-20010904/DTD/svg10.dtd">
<svg version="1.0" xmlns="http://www.w3.org/2000/svg"
 width="700.000000pt" height="700.000000pt" viewBox="0 0 700.000000 700.000000"
 preserveAspectRatio="xMidYMid meet">
<metadata>
Created by potrace 1.11, written by Peter Selinger 2001-2013
</metadata>
<g transform="translate(0.000000,700.000000) scale(0.100000,-0.100000)"
fill="#000000" stroke="none">
<path d="M3299 6156 c-2 -2 -44 -7 -94 -10 -113 -9 -230 -24 -315 -41 -270
-56 -441 -107 -654 -196 -407 -171 -755 -404 -1061 -713 -307 -308 -522 -624
-695 -1016 -65 -147 -165 -449 -185 -560 -3 -14 -7 -36 -10 -50 -5 -23 -30
-158 -41 -221 -4 -28 -7 -54 -21 -174 -10 -89 -10 -485 -1 -590 11 -119 30
-246 53 -365 49 -252 152 -552 273 -797 87 -176 146 -275 156 -262 1 2 33 50
70 106 185 277 426 534 716 764 54 43 253 180 295 203 17 9 57 33 90 52 158
92 387 194 580 259 61 20 117 38 125 40 8 2 49 13 90 24 108 29 313 68 395 76
39 4 72 8 75 10 3 2 57 6 120 10 181 12 447 7 580 -10 19 -2 58 -7 85 -10 319
-35 721 -157 1030 -313 437 -219 788 -500 1096 -877 68 -83 192 -256 224 -312
l19 -32 20 32 c12 18 27 41 33 52 38 61 166 326 203 420 183 470 256 927 226
1425 -9 135 -9 138 -20 220 -28 204 -68 384 -126 565 -367 1156 -1348 2025
-2530 2239 -130 24 -140 25 -215 32 -38 4 -74 9 -79 12 -10 5 -501 13 -507 8z
m-1449 -1557 l0 -37 -62 0 c-125 0 -125 0 -130 -26 -3 -14 -2 -29 1 -35 4 -5
40 -10 81 -12 41 -1 87 -8 101 -15 38 -19 50 -70 35 -147 -11 -56 -42 -66
-185 -61 -62 2 -116 5 -118 8 -2 2 -7 18 -9 35 l-5 31 104 -1 c57 -1 109 1
116 5 6 4 11 20 11 37 l0 29 -80 0 c-120 0 -150 23 -150 113 0 93 33 112 189
112 l101 0 0 -36z m476 -1 l1 -35 -94 0 c-51 0 -97 -3 -100 -7 -13 -13 -8
-207 5 -215 7 -4 53 -6 101 -4 l89 5 -1 -34 c-2 -32 -4 -33 -48 -38 -26 -3
-82 -5 -124 -5 -72 0 -79 2 -101 29 -24 27 -25 34 -23 157 2 179 9 186 199
184 l95 -1 1 -36z m432 28 c12 -4 29 -21 38 -37 28 -56 7 -199 -31 -199 -21 0
-20 -5 15 -65 l30 -53 -34 -4 c-52 -6 -69 5 -99 59 -25 47 -29 50 -64 49 l-38
-1 1 -52 1 -53 -48 0 -49 0 0 183 0 183 128 -1 c70 -1 137 -5 150 -9z m496 4
c40 -15 49 -46 51 -165 2 -126 -7 -170 -38 -187 -12 -7 -69 -13 -128 -14 -171
-4 -184 11 -177 224 3 99 4 105 31 128 26 22 37 24 132 24 57 0 115 -4 129
-10z m306 1 c3 0 5 -66 5 -146 l0 -145 96 0 97 0 0 -34 c0 -34 -1 -35 -46 -38
-26 -2 -91 -2 -144 0 l-98 3 0 183 0 182 43 -2 c23 -1 44 -2 47 -3z m438 -143
l3 -147 96 -3 96 -3 2 -32 c1 -30 0 -31 -44 -35 -25 -1 -91 -1 -146 2 l-100 5
0 175 c-1 96 3 178 7 181 5 3 25 5 46 4 l37 -1 3 -146z m900 109 c3 -38 3 -39
-30 -37 -85 5 -78 18 -78 -145 l0 -145 -48 0 -48 0 1 141 c1 155 4 149 -67
152 -40 2 -43 4 -44 32 0 17 0 32 2 35 1 3 71 5 156 5 l153 0 3 -38z m442 28
c38 -20 42 -38 42 -177 0 -176 -10 -186 -185 -184 -106 1 -109 2 -133 29 -25
29 -26 40 -25 192 1 142 15 154 169 155 72 0 112 -4 132 -15z m-3714 -685 c6
-8 29 -49 51 -90 22 -41 49 -91 60 -110 11 -19 44 -80 73 -135 29 -55 58 -108
64 -117 12 -17 12 -17 257 437 l16 30 127 1 126 0 0 -458 c0 -359 -3 -458 -12
-459 -38 -3 -205 -4 -214 -1 -8 2 -12 71 -12 235 0 128 -1 241 -1 252 -1 11
-42 -53 -92 -142 l-92 -163 -93 0 -93 0 -80 143 c-44 78 -86 150 -93 160 -11
14 -13 -26 -13 -235 l0 -252 -113 0 c-63 -1 -116 3 -119 8 -4 6 -7 721 -3 891
0 20 6 21 123 21 97 -1 124 -4 133 -16z m1625 -65 c17 -44 41 -107 54 -140
112 -290 255 -670 257 -683 3 -14 -12 -16 -122 -16 l-125 0 -30 82 -30 82
-166 0 -167 0 -28 -77 c-15 -43 -31 -80 -35 -83 -4 -3 -60 -5 -126 -4 -110 0
-118 2 -117 20 2 27 333 887 344 894 5 3 66 6 135 5 l125 0 31 -80z m1198 65
c60 -19 116 -74 132 -130 18 -61 18 -291 0 -353 -15 -53 -59 -104 -103 -119
-15 -6 -28 -13 -28 -17 0 -3 27 -53 60 -110 33 -57 60 -106 60 -108 0 -3 9
-18 21 -34 11 -16 17 -29 12 -30 -4 -1 -59 -2 -122 -3 -109 -1 -151 8 -151 33
0 5 -27 57 -60 116 -33 59 -60 111 -60 116 0 8 -30 11 -100 11 -11 0 -37 0
-58 -1 l-38 -1 0 -135 c1 -74 -1 -135 -4 -136 -33 -7 -231 -2 -233 6 -3 9 -1
892 2 906 0 3 142 5 314 4 235 -1 323 -5 356 -15z m1108 -77 l0 -93 -223 0
c-263 0 -265 -1 -267 -89 -1 -70 22 -91 97 -91 240 -1 312 -6 351 -25 85 -40
117 -106 120 -244 3 -163 -29 -233 -125 -277 -26 -12 -68 -17 -165 -17 -115
-1 -347 9 -430 18 -16 2 -40 3 -52 4 -22 1 -23 5 -23 91 l0 89 48 -4 c26 -2
142 -7 257 -11 255 -7 246 -11 250 98 l4 76 -202 4 c-180 3 -207 6 -248 24
-86 40 -122 116 -120 258 1 99 6 128 31 176 22 43 58 72 110 88 53 16 65 17
336 17 l251 0 0 -92z"/>
<path d="M2587 4560 c-10 -4 -14 -48 -8 -97 1 -17 117 -18 127 -1 10 16 6 80
-5 91 -10 10 -95 15 -114 7z"/>
<path d="M3079 4563 c-10 -2 -19 -12 -21 -21 -6 -25 -2 -191 5 -198 10 -10
101 -12 125 -3 21 8 22 14 22 107 0 63 -4 102 -12 110 -11 11 -84 15 -119 5z"/>
<path d="M5143 4558 c-11 -18 -13 -207 -2 -213 20 -13 121 -12 134 1 17 17 18
200 1 212 -19 14 -124 14 -133 0z"/>
<path d="M3034 3524 l-52 -154 104 0 c57 0 104 3 104 8 0 7 -99 295 -103 298
-1 1 -25 -68 -53 -152z"/>
<path d="M4032 3770 c-16 -5 -18 -17 -17 -140 l0 -135 135 0 c198 -1 207 4
209 125 1 99 -6 126 -39 140 -28 12 -253 19 -288 10z"/>
</g>
</svg>
